<?xml version="1.0" encoding="utf-8"?>
<!-- Generator: Adobe Illustrator 23.0.1, SVG Export Plug-In . SVG Version: 6.00 Build 0)  -->
<svg version="1.1" id="Layer_1" xmlns="http://www.w3.org/2000/svg" xmlns:xlink="http://www.w3.org/1999/xlink" x="0px" y="0px"
	 viewBox="0 0 2000 2000" style="enable-background:new 0 0 2000 2000;" xml:space="preserve">
<style type="text/css">
	.st0{fill:url(#SVGID_1_);}
</style>
<linearGradient id="SVGID_1_" gradientUnits="userSpaceOnUse" x1="1474.1329" y1="1183.6879" x2="503.5727" y2="623.3347" gradientTransform="matrix(1 0 0 -1 0 2000)">
	<stop  offset="0" style="stop-color:#56BCEA"/>
	<stop  offset="1" style="stop-color:#1595CC"/>
</linearGradient>
<path class="st0" d="M1447.4,1118.1c-26.8-118.8-100.3-211.8-170.7-306.2c-78-104.7-122.2-218.6-106.5-351.5
	c6.3-52.9,20.9-103.9,37.3-163.5c-119.3,53.2-219.7,119.7-307.7,203.8c-201.6,192.8-340.2,421.1-362.5,704
	c-15.3,194.1,67.3,348.3,240.7,440.2c175.9,93.2,351.8,77.8,507.8-46.6C1440,1475.6,1490.8,1311,1447.4,1118.1z M747.9,1464.8
	l251.4-435.3l251.4,435.3H747.9z"/>
</svg>
