<?xml version="1.0" encoding="utf-8"?>
<!-- Created by Louis Van Keymeulen (https://louisvankeymeulen.be/) -->
<svg version="1.1" id="Layer_1" xmlns="http://www.w3.org/2000/svg" xmlns:xlink="http://www.w3.org/1999/xlink" x="0px" y="0px"
	 viewBox="0 0 1000.8 1520.3" style="enable-background:new 0 0 1000.8 1520.3;" xml:space="preserve">
<linearGradient id="back" gradientUnits="userSpaceOnUse" x1="1012.9796" y1="560.7415" x2="-35.053" y2="1165.8232">
	<stop  offset="0" style="stop-color:#58BDEB"/>
	<stop  offset="1" style="stop-color:#1595CD"/>
</linearGradient>
<path fill="url('#back')" class="st0" d="M984.2,886.7C955.2,758.5,875.9,658,799.9,556.1c-84.2-113.1-132-236-115-379.6c6.8-57.1,22.6-112.2,40.3-176.6
	C596.3,57.4,487.9,129.3,392.9,220.1C175.2,428.3,25.5,674.8,1.4,980.3c-16.5,209.6,72.7,376.1,259.9,475.3
	c189.9,100.6,379.9,84,548.3-50.3C976.2,1272.8,1031.1,1095,984.2,886.7z M228.9,1261.1l271.5-470l271.5,470H228.9z"/>
</svg>
