<?xml version="1.0" encoding="utf-8"?>
<!-- Generator: Adobe Illustrator 23.0.1, SVG Export Plug-In . SVG Version: 6.00 Build 0)  -->
<svg version="1.1" id="Layer_1" xmlns="http://www.w3.org/2000/svg" xmlns:xlink="http://www.w3.org/1999/xlink" x="0px" y="0px"
	 viewBox="0 0 2000 2000" style="enable-background:new 0 0 2000 2000;" xml:space="preserve">
<style type="text/css">
	.st0{fill:url(#SVGID_1_);}
	.st1{font-family:'Roboto-Light';}
	.st2{font-size:123.1698px;}
	.st3{letter-spacing:107;}
</style>
<linearGradient id="SVGID_1_" gradientUnits="userSpaceOnUse" x1="1475.6707" y1="714.4923" x2="505.1078" y2="1274.847">
	<stop  offset="0" style="stop-color:#56BCEA"/>
	<stop  offset="1" style="stop-color:#1595CC"/>
</linearGradient>
<path class="st0" d="M1448.95,1016.27c-26.75-118.85-100.35-211.79-170.67-306.19c-77.97-104.67-122.2-218.63-106.49-351.45
	c6.26-52.91,20.89-103.87,37.32-163.5c-119.25,53.24-219.71,119.72-307.66,203.84c-201.59,192.8-340.2,421.05-362.5,704.04
	c-15.29,194.1,67.3,348.28,240.69,440.18c175.86,93.21,351.78,77.78,507.75-46.55C1441.56,1373.76,1492.37,1209.15,1448.95,1016.27z
	 M749.42,1362.99l251.35-435.34l251.35,435.34H749.42z"/>
<text transform="matrix(1 0 0 1 531.3433 1821.9537)" class="st1 st2 st3">ELIXUS</text>
</svg>
